<svg width="166" height="30" viewBox="0 0 166 30" fill="none" xmlns="http://www.w3.org/2000/svg">
<path d="M0.31 22.5V1.5H8.23C10.26 1.5 11.765 1.935 12.745 2.805C13.735 3.665 14.23 4.92 14.23 6.57C14.23 7.8 13.95 8.83 13.39 9.66C12.84 10.48 12.01 11.08 10.9 11.46V10.74C12.58 11.1 13.835 11.76 14.665 12.72C15.495 13.68 15.91 14.95 15.91 16.53C15.91 18.42 15.3 19.89 14.08 20.94C12.86 21.98 11.19 22.5 9.07 22.5H0.31ZM4.15 19.08H8.5C9.55 19.08 10.385 18.865 11.005 18.435C11.635 18.005 11.95 17.23 11.95 16.11C11.95 14.97 11.62 14.195 10.96 13.785C10.3 13.375 9.48 13.17 8.5 13.17H4.15V19.08ZM4.15 9.75H7.66C8.59 9.75 9.285 9.56 9.745 9.18C10.215 8.8 10.45 8.19 10.45 7.35C10.45 6.48 10.215 5.86 9.745 5.49C9.285 5.11 8.59 4.92 7.66 4.92H4.15V9.75ZM22.1835 22.8C21.2935 22.8 20.5635 22.625 19.9935 22.275C19.4335 21.915 19.0185 21.44 18.7485 20.85C18.4785 20.25 18.3435 19.59 18.3435 18.87V-1.78814e-06H22.0635V17.34C22.0635 18.14 22.1085 18.71 22.1985 19.05C22.2985 19.38 22.4785 19.58 22.7385 19.65C22.9985 19.71 23.3735 19.74 23.8635 19.74L23.5335 22.8H22.1835ZM32.2879 22.8C30.7279 22.8 29.4829 22.49 28.5529 21.87C27.6229 21.25 26.9529 20.4 26.5429 19.32C26.1329 18.23 25.9279 16.98 25.9279 15.57V7.5H29.6479V15.57C29.6479 16.96 29.8779 17.995 30.3379 18.675C30.8079 19.345 31.5679 19.68 32.6179 19.68C33.4579 19.68 34.1529 19.48 34.7029 19.08C35.2629 18.68 35.7279 18.12 36.0979 17.4L35.4379 19.29V7.5H39.1579V22.5H35.6779L35.4979 19.89L36.3079 20.94C35.9479 21.4 35.3779 21.825 34.5979 22.215C33.8279 22.605 33.0579 22.8 32.2879 22.8ZM42.5106 14.58V11.76H51.8106V14.58H42.5106Z" fill="#0392B8"/>
<path d="M64.8297 22.92C62.8297 22.92 61.0497 22.47 59.4897 21.57C57.9297 20.66 56.7047 19.39 55.8147 17.76C54.9247 16.12 54.4797 14.2 54.4797 12C54.4797 9.8 54.9247 7.885 55.8147 6.255C56.7047 4.615 57.9297 3.345 59.4897 2.445C61.0497 1.535 62.8297 1.08 64.8297 1.08C66.8297 1.08 68.6097 1.535 70.1697 2.445C71.7297 3.345 72.9547 4.615 73.8447 6.255C74.7347 7.885 75.1797 9.8 75.1797 12C75.1797 14.2 74.7347 16.12 73.8447 17.76C72.9547 19.39 71.7297 20.66 70.1697 21.57C68.6097 22.47 66.8297 22.92 64.8297 22.92ZM64.8297 19.2C66.2297 19.2 67.3997 18.89 68.3397 18.27C69.2797 17.65 69.9847 16.8 70.4547 15.72C70.9247 14.63 71.1597 13.39 71.1597 12C71.1597 10.61 70.9247 9.375 70.4547 8.295C69.9847 7.205 69.2797 6.35 68.3397 5.73C67.3997 5.11 66.2297 4.8 64.8297 4.8C63.4297 4.8 62.2597 5.11 61.3197 5.73C60.3797 6.35 59.6747 7.205 59.2047 8.295C58.7347 9.375 58.4997 10.61 58.4997 12C58.4997 13.39 58.7347 14.63 59.2047 15.72C59.6747 16.8 60.3797 17.65 61.3197 18.27C62.2597 18.89 63.4297 19.2 64.8297 19.2ZM77.7576 29.76V7.5H80.7576L81.4776 9.99L80.3676 9.6C81.0576 8.89 81.8076 8.325 82.6176 7.905C83.4276 7.475 84.4176 7.26 85.5876 7.26C87.0576 7.26 88.2926 7.615 89.2926 8.325C90.2926 9.035 91.0476 9.98 91.5576 11.16C92.0776 12.34 92.3376 13.63 92.3376 15.03C92.3376 16.43 92.0776 17.72 91.5576 18.9C91.0476 20.08 90.2926 21.025 89.2926 21.735C88.2926 22.445 87.0576 22.8 85.5876 22.8C84.4176 22.8 83.4676 22.64 82.7376 22.32C82.0076 22 81.2676 21.49 80.5176 20.79L81.4776 20.04V29.76H77.7576ZM85.0176 19.74C86.1276 19.74 86.9876 19.305 87.5976 18.435C88.2176 17.555 88.5276 16.42 88.5276 15.03C88.5276 13.63 88.2176 12.495 87.5976 11.625C86.9876 10.755 86.1276 10.32 85.0176 10.32C84.1576 10.32 83.4526 10.52 82.9026 10.92C82.3526 11.32 81.9476 11.875 81.6876 12.585C81.4276 13.285 81.2976 14.1 81.2976 15.03C81.2976 15.96 81.4276 16.78 81.6876 17.49C81.9476 18.19 82.3526 18.74 82.9026 19.14C83.4526 19.54 84.1576 19.74 85.0176 19.74ZM99.6398 22.8C98.6998 22.8 97.9348 22.61 97.3448 22.23C96.7548 21.84 96.3198 21.345 96.0398 20.745C95.7598 20.145 95.6198 19.52 95.6198 18.87V10.56H93.4898L93.8198 7.5H95.6198V4.2L99.3398 3.81V7.5H102.64V10.56H99.3398V17.34C99.3398 18.1 99.3848 18.65 99.4748 18.99C99.5648 19.32 99.7698 19.53 100.09 19.62C100.41 19.7 100.92 19.74 101.62 19.74H102.64L102.31 22.8H99.6398ZM105.062 22.5V7.5H108.782V22.5H105.062ZM105.062 5.22V1.5H108.782V5.22H105.062ZM112.269 22.5V7.5H115.449L115.689 9.69L115.149 9.03C115.719 8.58 116.399 8.175 117.189 7.815C117.989 7.445 118.919 7.26 119.979 7.26C120.779 7.26 121.484 7.38 122.094 7.62C122.714 7.85 123.244 8.185 123.684 8.625C124.124 9.055 124.479 9.57 124.749 10.17L123.849 9.96C124.329 9.1 125.029 8.435 125.949 7.965C126.879 7.495 127.929 7.26 129.099 7.26C130.479 7.26 131.604 7.545 132.474 8.115C133.344 8.685 133.984 9.49 134.394 10.53C134.804 11.56 135.009 12.77 135.009 14.16V22.5H131.289V14.43C131.289 13.03 131.069 11.995 130.629 11.325C130.199 10.655 129.479 10.32 128.469 10.32C127.969 10.32 127.529 10.41 127.149 10.59C126.779 10.76 126.469 11.015 126.219 11.355C125.979 11.685 125.799 12.09 125.679 12.57C125.559 13.04 125.499 13.57 125.499 14.16V22.5H121.779V14.43C121.779 13.5 121.679 12.73 121.479 12.12C121.289 11.51 120.979 11.06 120.549 10.77C120.129 10.47 119.579 10.32 118.899 10.32C118.029 10.32 117.314 10.525 116.754 10.935C116.204 11.335 115.719 11.88 115.299 12.57L115.989 10.56V22.5H112.269ZM141.584 22.8C140.784 22.8 140.054 22.625 139.394 22.275C138.734 21.915 138.209 21.4 137.819 20.73C137.429 20.06 137.234 19.25 137.234 18.3C137.234 17.45 137.429 16.725 137.819 16.125C138.219 15.515 138.739 15.01 139.379 14.61C140.029 14.2 140.729 13.88 141.479 13.65C142.239 13.41 142.984 13.235 143.714 13.125C144.454 13.015 145.104 12.95 145.664 12.93C145.624 12.07 145.404 11.445 145.004 11.055C144.604 10.665 143.924 10.47 142.964 10.47C142.294 10.47 141.639 10.565 140.999 10.755C140.369 10.935 139.654 11.22 138.854 11.61L138.524 8.58C139.424 8.14 140.324 7.81 141.224 7.59C142.134 7.37 143.054 7.26 143.984 7.26C145.104 7.26 146.069 7.46 146.879 7.86C147.689 8.26 148.314 8.905 148.754 9.795C149.194 10.675 149.414 11.84 149.414 13.29V17.34C149.414 18.09 149.449 18.635 149.519 18.975C149.589 19.305 149.719 19.515 149.909 19.605C150.099 19.695 150.374 19.74 150.734 19.74H151.214L150.884 22.8H149.534C148.974 22.8 148.474 22.725 148.034 22.575C147.604 22.435 147.234 22.235 146.924 21.975C146.614 21.715 146.364 21.41 146.174 21.06C145.684 21.61 145.019 22.04 144.179 22.35C143.349 22.65 142.484 22.8 141.584 22.8ZM143.144 19.95C143.474 19.95 143.884 19.865 144.374 19.695C144.864 19.515 145.304 19.24 145.694 18.87V15.45C144.994 15.48 144.294 15.595 143.594 15.795C142.894 15.995 142.309 16.29 141.839 16.68C141.369 17.07 141.134 17.56 141.134 18.15C141.134 18.76 141.294 19.215 141.614 19.515C141.934 19.805 142.444 19.95 143.144 19.95ZM151.845 22.5L156.825 15L151.845 7.5H156.285L159.015 11.85L161.535 7.5H165.975L160.995 15L165.975 22.5H161.535L158.805 18.15L156.285 22.5H151.845Z" fill="#EB5757"/>
</svg>
