<svg width="62" height="63" viewBox="0 0 62 63" fill="none" xmlns="http://www.w3.org/2000/svg">
<g id="Group 4">
<path id="Vector" d="M31 0.5C13.8792 0.5 0 14.3792 0 31.5C0 48.6208 13.8792 62.5 31 62.5C48.1208 62.5 62 48.6208 62 31.5C62 14.3792 48.1208 0.5 31 0.5ZM49.9976 50.4976C45.2869 55.1942 38.9964 57.9687 32.3518 58.2807C25.7072 58.5926 19.1844 56.4195 14.0545 52.1849C8.92462 47.9502 5.55502 41.9574 4.60232 35.374C3.64961 28.7907 5.18205 22.0884 8.90102 16.5732C12.62 11.058 18.2591 7.12494 24.7196 5.54037C31.18 3.95581 37.999 4.83325 43.8478 8.00174C49.6967 11.1702 54.1564 16.4028 56.358 22.6798C58.5595 28.9569 58.3453 35.8287 55.757 41.9564C54.408 45.1494 52.452 48.0501 49.9976 50.4976Z" fill="#F1F1F1"/>
<path id="Vector_2" d="M17.5669 24.2666H22.7335V29.4333H17.5669V24.2666ZM39.2669 24.2666H44.4335V29.4333H39.2669V24.2666ZM41.6292 38.1133C40.8297 40.1306 39.4411 41.8603 37.6442 43.0768C35.8473 44.2933 33.7256 44.9403 31.5556 44.9333H30.4448C28.2748 44.9403 26.153 44.2934 24.356 43.0769C22.559 41.8604 21.1703 40.1307 20.3708 38.1133L20.2056 37.6999H15.7544L16.5335 39.6479C17.6456 42.4282 19.5653 44.8115 22.0449 46.4903C24.5245 48.1692 27.4503 49.0665 30.4448 49.0666H31.5556C34.5501 49.0665 37.4759 48.1692 39.9555 46.4903C42.4351 44.8115 44.3547 42.4282 45.4669 39.6479L46.246 37.6999H41.7944L41.6292 38.1133Z" fill="#F1F1F1"/>
</g>
</svg>
