<svg width="60" height="61" viewBox="0 0 60 61" fill="none" xmlns="http://www.w3.org/2000/svg">
<path fill-rule="evenodd" clip-rule="evenodd" d="M10 2.16667C10 1.72464 10.1756 1.30072 10.4882 0.988156C10.8007 0.675595 11.2246 0.5 11.6667 0.5H48.3333C48.7754 0.5 49.1993 0.675595 49.5118 0.988156C49.8244 1.30072 50 1.72464 50 2.16667V3.83333H58.3333C58.7754 3.83333 59.1993 4.00893 59.5118 4.32149C59.8244 4.63405 60 5.05797 60 5.5V15.5C60 17.7101 59.122 19.8298 57.5592 21.3926C55.9964 22.9554 53.8768 23.8333 51.6667 23.8333H48.8617C46.2933 31.1 39.645 36.44 31.6667 37.0983V47.1667H43.3333C43.7754 47.1667 44.1993 47.3423 44.5118 47.6548C44.8244 47.9674 45 48.3913 45 48.8333V58.8333C45 59.2754 44.8244 59.6993 44.5118 60.0118C44.1993 60.3244 43.7754 60.5 43.3333 60.5H16.6667C16.2246 60.5 15.8007 60.3244 15.4882 60.0118C15.1756 59.6993 15 59.2754 15 58.8333V48.8333C15 48.3913 15.1756 47.9674 15.4882 47.6548C15.8007 47.3423 16.2246 47.1667 16.6667 47.1667H28.3333V37.0983C20.3567 36.44 13.7067 31.1 11.1383 23.8333H8.33333C6.1232 23.8333 4.00358 22.9554 2.44078 21.3926C0.877974 19.8298 0 17.7101 0 15.5V5.5C0 5.05797 0.175595 4.63405 0.488156 4.32149C0.800716 4.00893 1.22464 3.83333 1.66667 3.83333H10V2.16667ZM46.6667 17.1667V3.83333H13.3333V17.1667C13.3333 26.3717 20.795 33.8333 30 33.8333C39.205 33.8333 46.6667 26.3717 46.6667 17.1667ZM50 7.16667V20.5H51.6667C52.9927 20.5 54.2645 19.9732 55.2022 19.0355C56.1399 18.0979 56.6667 16.8261 56.6667 15.5V7.16667H50ZM3.33333 7.16667H10V20.5H8.33333C7.00725 20.5 5.73548 19.9732 4.7978 19.0355C3.86012 18.0979 3.33333 16.8261 3.33333 15.5V7.16667ZM18.3333 50.5V57.1667H41.6667V50.5H18.3333Z" fill="#F1F1F1"/>
</svg>
